<svg width="166" height="166" viewBox="0 0 166 166" fill="none" xmlns="http://www.w3.org/2000/svg">
<path d="M137.84 0.47998H28.41C12.9461 0.47998 0.410034 13.016 0.410034 28.48V137.91C0.410034 153.374 12.9461 165.91 28.41 165.91H137.84C153.304 165.91 165.84 153.374 165.84 137.91V28.48C165.84 13.016 153.304 0.47998 137.84 0.47998Z" fill="#1677F0"/>
<path d="M103.28 95.93L105.89 78.9H89.55V67.85C89.55 63.19 91.83 58.65 99.15 58.65H106.58V44.15C106.58 44.15 99.84 43 93.39 43C79.94 43 71.14 51.15 71.14 65.92V78.9H56.1801V95.93H71.14V137.09C74.14 137.56 77.21 137.81 80.34 137.81C83.47 137.81 86.54 137.56 89.54 137.09V95.93H103.26H103.28Z" fill="white"/>
</svg>
