<svg width="82" height="110" viewBox="0 0 82 110" fill="none" xmlns="http://www.w3.org/2000/svg">
<path fill-rule="evenodd" clip-rule="evenodd" d="M16.1317 42.0085C7.82668 40.9248 1.58455 41.1891 1.27957 42.8231C0.974597 44.4571 6.70114 46.9553 14.838 48.9402L15.0217 47.9557C11.9194 47.197 9.18393 46.3659 7.02084 45.5432C5.29829 44.888 3.9857 44.2556 3.14497 43.6944C2.72802 43.4161 2.4766 43.1875 2.3451 43.022C2.52747 42.915 2.84441 42.7925 3.33369 42.6833C4.32027 42.4631 5.77259 42.3468 7.6155 42.3571C9.92973 42.37 12.7808 42.5816 15.9479 42.9931L16.1317 42.0085ZM2.26142 42.8927C2.26108 42.8918 2.26085 42.8913 2.26077 42.8913C2.26063 42.8912 2.26114 42.8931 2.26271 42.8968C2.26221 42.895 2.26176 42.8936 2.26142 42.8927ZM2.22314 43.1089C2.22087 43.112 2.21944 43.1135 2.2193 43.1134C2.21916 43.1134 2.22031 43.1119 2.22314 43.1089Z" fill="black"/>
<path fill-rule="evenodd" clip-rule="evenodd" d="M51.7187 45.7358C60.3455 44.7909 66.7981 45.1605 67.0661 46.801C67.3341 48.4415 61.3346 50.8453 52.8555 52.6949L52.6941 51.7066C55.9309 50.9988 58.7904 50.212 61.0571 49.4236C62.861 48.7962 64.2431 48.1835 65.135 47.6326C65.5658 47.3665 65.8339 47.144 65.9806 46.9784C65.7888 46.868 65.4638 46.7424 64.9707 46.6272C63.9499 46.3888 62.4447 46.2478 60.5349 46.227C58.1351 46.201 55.1739 46.365 51.8801 46.7241L51.7187 45.7358ZM66.0845 46.8348C66.085 46.8337 66.0853 46.8331 66.0853 46.8331C66.0855 46.8331 66.0848 46.8351 66.0829 46.8392C66.0835 46.8373 66.0841 46.8358 66.0845 46.8348ZM66.1218 47.0777C66.1244 47.0811 66.126 47.0828 66.1261 47.0827C66.1263 47.0827 66.125 47.081 66.1218 47.0777Z" fill="black"/>
<path d="M59.5938 2.47536C57.9947 3.99762 39.3971 13.1657 37.2239 13.1657C35.0506 13.1657 33.2889 11.8073 33.2889 10.1317C33.2889 8.45603 56.1692 0.561689 58.3424 0.561689C60.6367 -0.264676 62.931 -0.00373399 59.5938 2.47536Z" fill="#050505"/>
<path d="M59.1893 16.9311C57.8827 18.4186 42.6866 27.3774 40.9109 27.3774C39.1351 27.3774 37.6956 26.05 37.6956 24.4126C37.6956 22.7752 56.391 15.0611 58.1668 15.0611C60.0415 14.2536 61.9161 14.5086 59.1893 16.9311Z" fill="#050505"/>
<path d="M9.70307 15.951C10.7922 17.8048 23.4593 28.9702 24.9395 28.9702C26.4197 28.9702 27.6197 27.3159 27.6197 25.2752C27.6197 23.2345 12.0357 13.6204 10.5555 13.6204C8.99275 12.614 7.43005 12.9318 9.70307 15.951Z" fill="#050505"/>
<ellipse cx="28.2776" cy="69.552" rx="27.581" ry="17.619" fill="#FFAB00"/>
<path d="M18.9022 47.3888L31.6476 71.7515H6.15681L18.9022 47.3888Z" fill="#FFAB00"/>
<path d="M36.3447 47.7254L49.0901 72.0881H23.5993L36.3447 47.7254Z" fill="#FFAB00"/>
<ellipse cx="21.3608" cy="31.2798" rx="21.3608" ry="31.2798" transform="matrix(1 0 0 -1 12.9063 71.2887)" fill="#FFAB00"/>
<ellipse cx="18.1391" cy="66.9967" rx="8.50322" ry="9.17285" fill="#FFD785"/>
<ellipse cx="18.0303" cy="68.5116" rx="5.77783" ry="6.47989" fill="#2D1010"/>
<ellipse cx="38.1979" cy="67.1651" rx="8.50322" ry="9.17285" fill="#FFD785"/>
<ellipse cx="38.0889" cy="68.176" rx="5.77783" ry="6.98367" fill="#2D1010"/>
<ellipse cx="26.9216" cy="88.8046" rx="13.716" ry="5.37225" fill="#74BDF7"/>
<ellipse cx="43.1293" cy="85.6264" rx="5.09258" ry="2.74495" transform="rotate(143.536 43.1293 85.6264)" fill="#74BDF7"/>
<ellipse cx="43.8762" cy="90.2437" rx="5.09258" ry="2.74495" transform="rotate(-161.49 43.8762 90.2437)" fill="#74BDF7"/>
<ellipse cx="17.8908" cy="88.3206" rx="1.76543" ry="1.62962" fill="#D9D9D9"/>
<ellipse cx="17.9587" cy="88.3546" rx="1.35802" ry="1.25616" fill="black"/>
<ellipse cx="43.0219" cy="84.5089" rx="2.10834" ry="0.613043" transform="rotate(-34.8975 43.0219 84.5089)" fill="#3883F2"/>
<ellipse cx="43.6711" cy="85.8071" rx="1.49588" ry="0.371147" transform="rotate(-34.8975 43.6711 85.8071)" fill="#3883F2"/>
<ellipse cx="44.4192" cy="89.9341" rx="1.49588" ry="0.371147" transform="rotate(11.5348 44.4192 89.9341)" fill="#3883F2"/>
<ellipse cx="44.1083" cy="91.2311" rx="2.10834" ry="0.613043" transform="rotate(18.6975 44.1083 91.2311)" fill="#3883F2"/>
<path fill-rule="evenodd" clip-rule="evenodd" d="M19.2138 92.9467C19.2138 93.3428 19.6321 93.593 19.9552 93.3639C21.4196 92.3252 22.3636 90.6923 22.3636 88.856C22.3636 87.0197 21.4196 85.3868 19.9552 84.3481C19.6321 84.119 19.2138 84.3692 19.2138 84.7653C19.2138 84.9435 19.3048 85.1081 19.4482 85.2139C20.6281 86.0847 21.3636 87.4141 21.3636 88.856C21.3636 90.2979 20.6281 91.6273 19.4482 92.4981C19.3048 92.6039 19.2138 92.7685 19.2138 92.9467Z" fill="#3883F2"/>
<path fill-rule="evenodd" clip-rule="evenodd" d="M19.8126 79.8875C19.7107 79.8875 19.6266 79.968 19.6266 80.0698C19.6266 82.453 21.4617 84.385 23.7253 84.385C25.989 84.385 27.824 82.453 27.824 80.0698C27.824 79.968 27.7399 79.8875 27.638 79.8875H27.0019C26.9027 79.8875 26.824 79.9706 26.824 80.0698C26.824 81.9499 25.3888 83.385 23.7253 83.385C22.0618 83.385 20.6266 81.9499 20.6266 80.0698C20.6266 79.9706 20.548 79.8875 20.4487 79.8875H19.8126Z" fill="#131313"/>
<path fill-rule="evenodd" clip-rule="evenodd" d="M27.6159 79.8875C27.514 79.8875 27.4299 79.968 27.4299 80.0698C27.4299 82.453 29.265 84.385 31.5286 84.385C33.7923 84.385 35.6273 82.453 35.6273 80.0698C35.6273 79.968 35.5432 79.8875 35.4413 79.8875H34.8052C34.706 79.8875 34.6273 79.9706 34.6273 80.0698C34.6273 81.9499 33.1921 83.385 31.5286 83.385C29.8651 83.385 28.4299 81.9499 28.4299 80.0698C28.4299 79.9706 28.3513 79.8875 28.252 79.8875H27.6159Z" fill="#131313"/>
<path d="M18.194 66.6702L18.7138 68.8034H20.3961L19.0351 70.1218L19.5549 72.255L18.194 70.9366L16.833 72.255L17.3528 70.1218L15.9919 68.8034H17.6741L18.194 66.6702Z" fill="#D9D9D9"/>
<path d="M38.1206 66.3895L38.6404 68.5227H40.3227L38.9617 69.8411L39.4816 71.9744L38.1206 70.656L36.7596 71.9744L37.2795 69.8411L35.9185 68.5227H37.6008L38.1206 66.3895Z" fill="#D9D9D9"/>
</svg>
