<svg width="166" height="166" viewBox="0 0 166 166" fill="none" xmlns="http://www.w3.org/2000/svg">
<path d="M137.401 0.829956H28.4813C13.0174 0.829956 0.481323 13.366 0.481323 28.83V137.75C0.481323 153.214 13.0174 165.75 28.4813 165.75H137.401C152.865 165.75 165.401 153.214 165.401 137.75V28.83C165.401 13.366 152.865 0.829956 137.401 0.829956Z" fill="white"/>
<path d="M108.971 59.09C104.771 59.09 101.361 62.5 101.361 66.7V108.31H111.351C113.741 108.31 115.671 106.37 115.671 103.99V65.8C115.671 62.1 112.671 59.1 108.971 59.1V59.09Z" fill="#32AA51"/>
<path d="M56.9213 59.09C61.1213 59.09 64.5312 62.5 64.5312 66.7V108.31H54.5413C52.1513 108.31 50.2213 106.37 50.2213 103.99V65.8C50.2213 62.1 53.2213 59.1 56.9213 59.1V59.09Z" fill="#4386F8"/>
<path opacity="0.96" d="M113.001 71.3699L94.5214 87.0899L83.8413 96.18L72.2513 87.2499L53.1913 72.5699C49.8613 70.0099 49.2413 65.23 51.8013 61.9C54.0613 58.97 58.2713 58.42 61.2013 60.68L83.3914 77.77L104.411 59.88C107.231 57.48 111.461 57.82 113.861 60.64C116.581 63.84 116.191 68.6399 113.001 71.3599V71.3699Z" fill="#EE4131"/>
<path d="M101.361 81.26C101.391 74.97 101.431 68.68 101.461 62.38C102.241 61.74 102.871 61.2 103.301 60.82C103.671 60.5 104.171 60.05 104.901 59.51C105.341 59.18 105.661 58.9801 106.071 58.8001C106.511 58.6101 106.861 58.53 107.171 58.46C107.171 58.46 108.381 58.1801 109.811 58.3101C110.331 58.3601 110.791 58.4401 111.201 58.5401C111.361 58.5801 112.351 58.85 113.201 59.45C113.421 59.61 113.631 59.78 113.841 59.98C114.091 60.22 114.311 60.46 114.491 60.71C115.271 61.75 115.681 63.03 115.681 64.33V70.9301C110.911 74.3701 106.141 77.81 101.371 81.25L101.361 81.26Z" fill="#FFB900"/>
<path d="M64.5214 81.3199L64.4213 63.06C64.0613 62.78 63.8013 62.54 63.6213 62.37C63.5513 62.3 63.3813 62.14 63.0513 61.81C62.7613 61.52 62.7113 61.47 62.6013 61.38C62.4213 61.23 62.2814 61.1299 62.0214 60.9499C61.7414 60.7499 61.7013 60.74 61.5013 60.6C61.3313 60.48 61.1813 60.37 61.0613 60.29C61.0613 60.29 60.4113 59.86 59.8213 59.61C59.6513 59.54 59.5013 59.49 59.5013 59.49C59.2013 59.39 58.9513 59.33 58.7213 59.28C58.7213 59.28 57.5113 59.01 56.0813 59.13C55.5613 59.17 55.1013 59.26 54.6913 59.36C54.5313 59.4 53.5413 59.66 52.6913 60.24C52.4713 60.39 52.2613 60.56 52.0513 60.75C51.8013 60.98 51.5812 61.2199 51.4012 61.4599C50.6212 62.4699 50.2113 63.6999 50.2113 64.9599V71.3399C54.9813 74.6699 59.7514 77.9999 64.5214 81.3299V81.3199Z" fill="#C5201A"/>
</svg>
