<svg width="166" height="166" viewBox="0 0 166 166" fill="none" xmlns="http://www.w3.org/2000/svg">
<path d="M137.32 0.909973H28.75C13.286 0.909973 0.75 13.446 0.75 28.91V137.48C0.75 152.944 13.286 165.48 28.75 165.48H137.32C152.784 165.48 165.32 152.944 165.32 137.48V28.91C165.32 13.446 152.784 0.909973 137.32 0.909973Z" fill="#1A1C19"/>
<path d="M82.92 22.03C48.43 22.1 20.4201 50.32 20.5901 84.81C20.7301 112.67 39.13 136.22 64.43 144.11C65.85 144.55 67.2901 143.48 67.2701 141.99C67.2101 138.51 67.1601 135.03 67.1001 131.55C67.1001 130.68 66.3901 130.02 65.5201 130.08C64.0101 130.26 62.5 130.45 60.99 130.63C57.08 131.07 53.9201 130.47 52.2701 129.73C52.0501 129.63 51.8302 129.53 51.6202 129.42C50.5502 128.87 49.58 128.16 48.69 127.35C48.58 127.25 48.4601 127.14 48.3401 127.04C47.6101 126.41 46.68 125.43 45.91 124.03C45.4599 123.21 45.16 122.42 44.96 121.73C44.62 120.55 44.0601 119.45 43.3201 118.48C43.0401 118.1 42.76 117.72 42.5 117.32C41.51 115.78 40.1802 114.48 38.6202 113.53L38.3601 113.37C37.6801 112.96 37.0801 112.44 36.6001 111.81C36.0701 111.12 35.8401 110.49 36.0501 110.1C36.3201 109.6 37.2401 109.63 39.0601 109.69C40.4001 109.73 41.2601 109.76 42.2901 110.17C43.0901 110.49 43.63 110.93 44.68 111.81C46.13 113.02 47.4101 114.09 48.6001 115.85C49.5801 117.3 49.3701 117.54 50.3001 118.65C51.3501 119.9 52.4499 120.59 53.1499 121.01C55.2899 122.31 57.23 122.67 57.73 122.76C59.67 123.09 61.13 122.85 62.93 122.56C65.21 122.19 66.36 122.01 67 121.34C68.37 119.92 67.32 118.4 68.71 115.88C70.24 113.1 71.1201 113.38 70.8401 112.77C70.6101 112.28 69.5901 112.46 68.0601 112.37C66.8501 112.3 65.6501 111.71 63.0901 111.23C62.0301 111.03 58.2501 110.25 54.5401 107.97C53.9001 107.58 51.69 106.18 49.49 103.73C49.49 103.73 47.46 101.47 44.97 96.89C44.95 96.85 44.93 96.81 44.93 96.81C44.91 96.78 44.8999 96.74 44.8899 96.71C43.8599 94.05 42.7201 90.24 42.3201 85.56C41.9301 80.96 42.4 77.08 42.94 74.32C43.31 72.62 44.1301 69.98 46.0701 67.31C46.9001 66.16 47.7801 65.24 48.5801 64.52C48.9301 64.21 49.0599 63.72 48.91 63.28C48.33 61.52 47.74 59.05 47.7 56.08C47.66 52.99 48.2101 50.41 48.7901 48.56C49.0001 47.88 49.6401 47.44 50.3501 47.47C52.3001 47.56 54.76 47.89 57.48 48.77C61.9 50.21 65.0399 52.5 66.8899 54.1C67.0199 54.21 67.2002 54.25 67.3702 54.2C71.2202 52.98 76.9901 51.65 84.0501 51.84C89.7801 52 94.53 53.11 97.97 54.2C98.13 54.25 98.3 54.21 98.43 54.1C100.1 52.54 103.06 50.2 107.36 48.75C109.99 47.86 112.39 47.54 114.25 47.47C115.15 47.43 115.59 48.39 115.82 48.65C115.88 48.71 115.94 48.78 116 48.87C117.44 50.76 117.38 54.78 117.38 54.78C117.32 57.18 117.28 58.62 116.8 60.58C116.41 62.17 115.88 63.48 116.46 64.91C116.78 65.69 117.29 66.15 117.56 66.41C121.2 69.93 122.66 77.29 122.92 81.46C122.92 81.49 122.92 81.5 122.92 81.5C123.17 84.18 123.56 92.14 118.52 99.75C115.14 104.85 110.8 107.57 109.07 108.55C106.66 109.92 104 111.43 100.19 111.89C97.38 112.23 94.6899 111.92 94.41 112.87C94.2499 113.42 95.12 113.87 96.2 115.56C96.89 116.64 97.2099 117.5 97.6499 118.7C98.3099 120.5 98.7501 122.97 98.6001 132.33C98.5601 134.86 98.52 136.12 98.48 137.4C98.43 139.08 98.3701 140.65 98.3001 142.1C98.2401 143.6 99.6802 144.73 101.12 144.29C126.8 136.54 145.5 112.7 145.5 84.5C145.5 49.97 117.48 21.99 82.93 22.05L82.92 22.03Z" fill="white"/>
</svg>
