<svg width="166" height="166" viewBox="0 0 166 166" fill="none" xmlns="http://www.w3.org/2000/svg">
<path d="M137.19 0.829956H28.27C12.806 0.829956 0.27002 13.366 0.27002 28.83V137.75C0.27002 153.214 12.806 165.75 28.27 165.75H137.19C152.654 165.75 165.19 153.214 165.19 137.75V28.83C165.19 13.366 152.654 0.829956 137.19 0.829956Z" fill="white"/>
<path d="M108.76 59.09C104.56 59.09 101.15 62.5 101.15 66.7V108.31H111.14C113.53 108.31 115.46 106.37 115.46 103.99V65.8C115.46 62.1 112.46 59.1 108.76 59.1V59.09Z" fill="#32AA51"/>
<path d="M56.71 59.09C60.91 59.09 64.3199 62.5 64.3199 66.7V108.31H54.33C51.94 108.31 50.01 106.37 50.01 103.99V65.8C50.01 62.1 53.01 59.1 56.71 59.1V59.09Z" fill="#4386F8"/>
<path opacity="0.96" d="M112.79 71.3699L94.3101 87.0899L83.63 96.18L72.04 87.2499L52.98 72.5699C49.65 70.0099 49.03 65.23 51.59 61.9C53.85 58.97 58.06 58.42 60.99 60.68L83.1801 77.77L104.2 59.88C107.02 57.48 111.25 57.82 113.65 60.64C116.37 63.84 115.98 68.6399 112.79 71.3599V71.3699Z" fill="#EE4131"/>
<path d="M101.15 81.26C101.18 74.97 101.22 68.68 101.25 62.38C102.03 61.74 102.66 61.2 103.09 60.82C103.46 60.5 103.96 60.05 104.69 59.51C105.13 59.18 105.45 58.9801 105.86 58.8001C106.3 58.6101 106.65 58.53 106.96 58.46C106.96 58.46 108.17 58.1801 109.6 58.3101C110.12 58.3601 110.58 58.4401 110.99 58.5401C111.15 58.5801 112.14 58.85 112.99 59.45C113.21 59.61 113.42 59.78 113.63 59.98C113.88 60.22 114.1 60.46 114.28 60.71C115.06 61.75 115.47 63.03 115.47 64.33V70.9301C110.7 74.3701 105.93 77.81 101.16 81.25L101.15 81.26Z" fill="#FFB900"/>
<path d="M64.3101 81.3199L64.21 63.06C63.85 62.78 63.59 62.54 63.41 62.37C63.34 62.3 63.17 62.14 62.84 61.81C62.55 61.52 62.5 61.47 62.39 61.38C62.21 61.23 62.0701 61.1299 61.8101 60.9499C61.5301 60.7499 61.49 60.74 61.29 60.6C61.12 60.48 60.97 60.37 60.85 60.29C60.85 60.29 60.2 59.86 59.61 59.61C59.44 59.54 59.29 59.49 59.29 59.49C58.99 59.39 58.74 59.33 58.51 59.28C58.51 59.28 57.3 59.01 55.87 59.13C55.35 59.17 54.89 59.26 54.48 59.36C54.32 59.4 53.33 59.66 52.48 60.24C52.26 60.39 52.05 60.56 51.84 60.75C51.59 60.98 51.3699 61.2199 51.1899 61.4599C50.4099 62.4699 50 63.6999 50 64.9599V71.3399C54.77 74.6699 59.5401 77.9999 64.3101 81.3299V81.3199Z" fill="#C5201A"/>
</svg>
