<svg width="166" height="166" viewBox="0 0 166 166" fill="none" xmlns="http://www.w3.org/2000/svg">
<path d="M137.5 0.829956H28.5801C13.1161 0.829956 0.580078 13.366 0.580078 28.83V137.75C0.580078 153.214 13.1161 165.75 28.5801 165.75H137.5C152.964 165.75 165.5 153.214 165.5 137.75V28.83C165.5 13.366 152.964 0.829956 137.5 0.829956Z" fill="white"/>
<path d="M111.56 108.87C119.3 108.87 125.58 102.59 125.58 94.8499V77.9599C125.58 75.6999 123.75 73.8799 121.5 73.8799H97.54V94.8599C97.54 102.6 103.82 108.88 111.56 108.88V108.87Z" fill="#5259CE"/>
<path d="M85.46 120.44C97.01 120.44 106.38 111.07 106.38 99.52V77.65C106.38 75.57 104.69 73.8799 102.61 73.8799H68.3101C66.2301 73.8799 64.54 75.57 64.54 77.65V99.52C64.54 111.07 73.91 120.44 85.46 120.44Z" fill="#7B81EF"/>
<path d="M113.724 68.8965C118.031 67.1127 120.076 62.1755 118.292 57.869C116.508 53.5626 111.571 51.5176 107.265 53.3014C102.958 55.0852 100.913 60.0222 102.697 64.3287C104.481 68.6351 109.418 70.6802 113.724 68.8965Z" fill="#5259CE"/>
<path d="M93.9882 66.7445C98.7018 62.0309 98.7018 54.3885 93.9882 49.6749C89.2746 44.9612 81.6322 44.9613 76.9186 49.675C72.205 54.3886 72.2049 62.0309 76.9185 66.7445C81.6322 71.4581 89.2746 71.4581 93.9882 66.7445Z" fill="#7B81EF"/>
<path d="M44.55 63.3299H78.96C81.19 63.3299 83.01 65.1399 83.01 67.3799V101.79C83.01 104.02 81.2 105.84 78.96 105.84H44.55C42.32 105.84 40.5 104.03 40.5 101.79V67.3799C40.5 65.1499 42.31 63.3299 44.55 63.3299Z" fill="#424DB6"/>
<path d="M59.74 76.7499H52.5601V73.16H70.9299V76.7499H63.75V95.9999H59.73V76.7499H59.74Z" fill="white"/>
</svg>
